<svg width="112" height="67" fill="none" xmlns="http://www.w3.org/2000/svg"><path d="M6.652 16.94c3.493 0 5.718-1.842 5.718-4.929 0-2.273-1.268-3.637-2.895-4.235 1.053-.478 2.106-1.723 2.106-3.278 0-2.751-2.106-4.307-5.217-4.307H0V16.94h6.652ZM2.799 2.488h3.374c1.818 0 2.728.766 2.728 2.202 0 1.411-.91 2.177-2.704 2.177H2.799V2.488Zm0 6.796h3.518c2.249 0 3.325.909 3.325 2.607 0 1.7-1.076 2.585-3.325 2.585H2.799V9.284ZM19.382 4.69c-2.56 0-4.618 1.555-5.001 3.924l2.345.43c.167-1.435 1.196-2.297 2.656-2.297 1.579 0 2.608.91 2.608 2.393v.167l-2.273.24c-3.709.383-5.551 1.65-5.551 4.02 0 2.057 1.65 3.564 4.043 3.564 1.603 0 3.087-.813 3.78-2.033v1.842h2.56V9.427c0-3.015-2.105-4.737-5.167-4.737Zm-.646 10.432c-1.22 0-2.01-.67-2.01-1.627 0-1.053 1.005-1.771 2.967-1.986l2.297-.264v.503c-.024 1.962-1.22 3.374-3.254 3.374ZM33.023 17.131c2.943 0 5.024-1.507 5.527-4.02l-2.56-.502c-.287 1.412-1.364 2.25-2.895 2.25-2.058 0-3.422-1.556-3.422-3.948 0-2.393 1.34-3.948 3.422-3.948 1.531 0 2.656.933 2.895 2.297l2.536-.503C38.12 6.27 35.99 4.69 33.023 4.69c-3.613 0-6.054 2.512-6.054 6.22 0 3.71 2.441 6.221 6.054 6.221ZM52.276 16.94l-5.384-7.298 5.001-4.761h-3.374l-4.976 4.546V0H40.91v16.94h2.632V12.8l1.507-1.411 4.044 5.551h3.182ZM64.562 10.456c0-2.943-2.058-5.766-5.934-5.766-3.828 0-5.886 2.966-5.886 6.22 0 3.255 2.177 6.221 6.006 6.221 2.823 0 4.88-1.34 5.527-3.66l-2.465-.622c-.31 1.316-1.435 2.057-3.015 2.057-1.914 0-3.254-1.292-3.493-3.373h9.212c.024-.216.048-.718.048-1.077Zm-9.14-.91c.383-1.794 1.555-2.799 3.206-2.799 1.914 0 2.99 1.173 3.158 2.8h-6.364ZM72.107 17.131c1.603 0 3.063-.717 3.637-1.722v1.531h2.608V0h-2.608v6.388c-.718-1.005-2.13-1.698-3.685-1.698-3.636 0-5.718 2.584-5.718 6.22 0 3.637 2.082 6.221 5.766 6.221Zm.335-2.273c-2.105 0-3.493-1.579-3.493-3.947 0-2.393 1.388-3.948 3.493-3.948 2.106 0 3.493 1.555 3.493 3.948 0 2.368-1.387 3.947-3.493 3.947ZM93.444 17.131c3.684 0 5.766-2.584 5.766-6.22 0-3.637-2.082-6.221-5.718-6.221-1.556 0-2.967.693-3.685 1.698V0h-2.608v16.94h2.608v-1.531c.574 1.005 2.034 1.722 3.637 1.722Zm-.335-2.273c-2.106 0-3.493-1.579-3.493-3.947 0-2.393 1.387-3.948 3.493-3.948 2.105 0 3.493 1.555 3.493 3.948 0 2.368-1.388 3.947-3.493 3.947ZM105.837 13.231l-3.158-8.35h-2.823l4.689 11.7-1.818 4.714h2.68l6.34-16.414h-2.68l-3.23 8.35ZM42.71 31.523 28.1 66.363h-9.6l-7.096-27.747c-.417-1.669-.835-2.294-2.087-3.129-2.296-1.252-5.844-2.295-8.974-2.92l.208-1.044h15.444c1.879 0 3.757 1.252 4.175 3.547l3.756 20.236 9.392-23.783h9.392ZM80.068 54.89c0-9.18-12.731-9.805-12.731-13.77 0-1.25 1.252-2.503 3.757-2.92 1.252-.208 4.8-.209 8.974 1.46l1.67-7.301c-2.087-.835-5.01-1.46-8.349-1.46-8.974 0-15.235 4.798-15.235 11.474 0 5.007 4.383 7.719 7.93 9.388 3.549 1.669 4.592 2.712 4.592 4.38 0 2.296-2.713 3.339-5.426 3.339-4.592 0-7.096-1.252-9.183-2.295l-1.67 7.719c2.087 1.043 6.053 1.878 10.018 1.878 9.392.208 15.653-4.59 15.653-11.892Zm23.584 11.474H112l-7.305-34.84h-7.722c-1.67 0-3.13 1.043-3.757 2.504L79.651 66.363h9.391l1.879-5.215H102.4l1.252 5.215ZM93.634 54.055l4.8-13.144 2.713 13.144h-7.513ZM55.65 31.523l-7.514 34.84h-8.974l7.513-34.84h8.975Z" fill="#191919"/></svg>