<svg width="84" height="33" viewBox="0 0 84 33" fill="none" xmlns="http://www.w3.org/2000/svg">
<path d="M57.3474 18.2528L58.1872 18.5047C58.1312 18.7427 58.0472 18.9387 57.9213 19.0926C57.7953 19.2466 57.6553 19.3726 57.4733 19.4426C57.2914 19.5266 57.0674 19.5686 56.7875 19.5686C56.4515 19.5686 56.1856 19.5266 55.9616 19.4286C55.7516 19.3306 55.5697 19.1626 55.4157 18.9107C55.2617 18.6727 55.1777 18.3508 55.1777 17.9728C55.1777 17.4689 55.3177 17.077 55.5837 16.797C55.8496 16.5171 56.2415 16.3911 56.7315 16.3911C57.1234 16.3911 57.4173 16.4751 57.6413 16.6291C57.8653 16.783 58.0332 17.021 58.1312 17.3569L57.2914 17.5389C57.2634 17.4409 57.2354 17.3709 57.1934 17.329C57.1374 17.259 57.0814 17.203 56.9974 17.161C56.9134 17.119 56.8294 17.105 56.7455 17.105C56.5355 17.105 56.3675 17.189 56.2555 17.3709C56.1716 17.4969 56.1296 17.7069 56.1296 17.9728C56.1296 18.3088 56.1856 18.5467 56.2835 18.6727C56.3815 18.7987 56.5355 18.8687 56.7175 18.8687C56.8994 18.8687 57.0394 18.8127 57.1234 18.7147C57.2354 18.5887 57.3054 18.4488 57.3474 18.2528Z" fill="#B8B8B8"/>
<path d="M58.5225 17.9729C58.5225 17.469 58.6624 17.0771 58.9424 16.7971C59.2223 16.5172 59.6143 16.3772 60.1182 16.3772C60.6361 16.3772 61.028 16.5172 61.308 16.7831C61.5879 17.0631 61.7279 17.441 61.7279 17.9449C61.7279 18.3089 61.6719 18.6028 61.5459 18.8268C61.42 19.0507 61.252 19.2327 61.014 19.3587C60.7901 19.4847 60.4961 19.5546 60.1602 19.5546C59.8102 19.5546 59.5303 19.4987 59.2923 19.3867C59.0684 19.2747 58.8864 19.1067 58.7324 18.8548C58.5785 18.6028 58.5225 18.3369 58.5225 17.9729ZM59.4743 17.9729C59.4743 18.2809 59.5303 18.5048 59.6423 18.6448C59.7542 18.7848 59.9082 18.8548 60.1182 18.8548C60.3281 18.8548 60.4821 18.7848 60.5941 18.6588C60.7061 18.5188 60.7621 18.2809 60.7621 17.9449C60.7621 17.651 60.7061 17.441 60.5801 17.315C60.4681 17.1751 60.3002 17.1191 60.1042 17.1191C59.9082 17.1191 59.7542 17.1891 59.6423 17.329C59.5303 17.441 59.4743 17.665 59.4743 17.9729Z" fill="#B8B8B8"/>
<path d="M62.2194 16.4333H63.4652L63.9411 18.309L64.417 16.4333H65.6628V19.5128H64.8789V17.1612L64.277 19.5128H63.5772L62.9753 17.1612V19.5128H62.1914V16.4333H62.2194Z" fill="#B8B8B8"/>
<path d="M66.2773 16.4333H67.8591C68.209 16.4333 68.461 16.5173 68.6289 16.6853C68.7969 16.8533 68.8809 17.0772 68.8809 17.3852C68.8809 17.6931 68.7829 17.9451 68.6009 18.1131C68.419 18.295 68.125 18.379 67.7471 18.379H67.2292V19.5268H66.2773V16.4333ZM67.2292 17.7491H67.4671C67.6491 17.7491 67.7751 17.7211 67.8591 17.6511C67.9291 17.5811 67.971 17.5112 67.971 17.4132C67.971 17.3152 67.9431 17.2312 67.8731 17.1612C67.8031 17.0912 67.6911 17.0632 67.5091 17.0632H67.2432V17.7491H67.2292Z" fill="#B8B8B8"/>
<path d="M69.3848 16.4333H70.3366V18.7569H71.8203V19.5128H69.3848V16.4333Z" fill="#B8B8B8"/>
<path d="M72.2969 16.4333H73.2487V19.5128H72.2969V16.4333Z" fill="#B8B8B8"/>
<path d="M75.8236 18.9946H74.7458L74.5918 19.4985H73.626L74.7878 16.4191H75.8236L76.9854 19.4985H75.9916L75.8236 18.9946ZM75.6276 18.3367L75.2917 17.2309L74.9557 18.3367H75.6276Z" fill="#B8B8B8"/>
<path d="M77.2803 16.4333H78.1621L79.3239 18.141V16.4333H80.2198V19.5128H79.3239L78.1761 17.8191V19.5128H77.2803V16.4333Z" fill="#B8B8B8"/>
<path d="M80.6387 16.4333H83.5362V17.1892H82.5703V19.5128H81.6185V17.1892H80.6527V16.4333H80.6387Z" fill="#B8B8B8"/>
<path d="M45.898 21.1223L48.6555 20.2545L47.7597 18.2668C47.1018 19.0927 46.4439 20.1565 45.898 21.1223ZM44.9601 12.0379L39.5571 0L0 2.23961L10.9601 32.1384L32.0544 25.4895C30.7106 23.5579 30.2207 21.2623 31.7744 20.1425C33.5101 18.8827 36.1277 20.3384 37.7934 22.3961C39.4031 19.7086 43.9243 13.4516 44.9601 12.0379Z" fill="#B8B8B8"/>
<path d="M38.3246 8.69908C39.9763 8.69908 41.3201 7.4393 41.3201 5.87157C41.3201 4.30385 39.9763 3.04407 38.3246 3.04407C36.6729 3.04407 35.3291 4.30385 35.3291 5.87157C35.3291 7.4253 36.6729 8.69908 38.3246 8.69908ZM35.875 9.91687H40.7742V22.7246H35.875V9.91687Z" fill="#090909"/>
<path d="M33.4529 13.6542C33.4949 13.6682 33.5229 13.6542 33.5229 13.6122V10.3647C33.5229 10.3227 33.4949 10.2808 33.4529 10.2528C33.4529 10.2528 32.809 9.83283 30.8494 9.72085C30.7514 9.66486 29.0297 9.65086 28.5678 9.72085C21.429 10.2947 21.1631 15.4598 21.1631 15.6838V16.9436C21.1631 17.0976 21.1631 22.3746 28.5678 22.8366C29.2957 22.8925 30.7094 22.8366 30.8494 22.8366C32.5571 22.8366 33.7329 22.3186 33.7329 22.3186C33.7749 22.3046 33.8029 22.2627 33.8029 22.2207V19.1832C33.8029 19.1412 33.7749 19.1272 33.7469 19.1552C33.7469 19.1552 33.215 19.5751 30.8914 19.8131C30.2335 19.8831 29.9116 19.8551 29.6736 19.8131C26.3702 19.2532 26.2162 16.8456 26.2162 16.8456C26.2162 16.8036 26.2022 16.7336 26.2022 16.7056V15.7818C26.2022 15.7398 26.2022 15.6698 26.2162 15.6418C26.2162 15.6418 26.4402 13.0523 29.6736 12.7723H30.8914C32.3051 12.9543 33.4529 13.6542 33.4529 13.6542Z" fill="#090909"/>
<path d="M7.55762 22.6827C7.55762 22.7246 7.58561 22.7526 7.6276 22.7526H12.4008C12.4428 22.7526 12.4708 22.7246 12.4708 22.6827V18.9593C12.4708 18.9173 12.4988 18.8893 12.5407 18.8893C12.5407 18.8893 20.1694 19.4352 20.1694 14.3261C20.1694 10.2808 15.3823 9.8469 13.8145 9.91689C13.7865 9.91689 7.6276 9.91689 7.6276 9.91689C7.58561 9.91689 7.55762 9.94488 7.55762 9.98688V22.6827ZM12.3868 16.0478V12.7024H13.5626C13.5626 12.7024 15.2563 12.7724 15.3962 13.9342C15.4242 14.0182 15.4242 14.5921 15.3962 14.6201C15.1723 15.9778 13.7025 16.0478 13.7025 16.0478H12.3868Z" fill="#090909"/>
<path d="M38.464 28.9049C38.8559 28.9049 39.1639 28.9049 39.6678 28.681C41.4035 27.7711 47.2685 13.4516 53.4554 9.04238C53.4974 9.01439 53.5394 8.97239 53.5673 8.9304C53.6093 8.87441 53.6093 8.81842 53.6093 8.81842C53.6093 8.81842 53.6093 8.52447 52.6995 8.52447C47.1985 8.3705 41.4735 19.9185 38.464 24.4817C38.422 24.5377 38.226 24.4817 38.226 24.4817C38.226 24.4817 36.2104 22.1021 34.4607 21.1923C34.4187 21.1783 34.2227 21.1083 34.0128 21.1223C33.8728 21.1223 33.0609 21.2902 32.683 21.6822C32.2351 22.1581 32.2491 22.424 32.2491 22.9979C32.2491 23.0399 32.2771 23.2359 32.3331 23.3339C32.767 24.0898 34.7126 26.7773 36.3224 28.261C36.5603 28.443 36.9383 28.9049 38.464 28.9049Z" fill="#B8B8B8"/>
<path d="M55.0801 4.71692H59.6573C60.5671 4.71692 61.295 4.8429 61.8409 5.08086C62.4008 5.33281 62.8627 5.68275 63.2127 6.13067C63.5766 6.59259 63.8425 7.1245 63.9965 7.72639C64.1645 8.32829 64.2485 8.97217 64.2485 9.65805C64.2485 10.7219 64.1225 11.5477 63.8845 12.1356C63.6466 12.7235 63.3106 13.2134 62.8767 13.6194C62.4428 14.0113 61.9809 14.2772 61.491 14.4172C60.8191 14.5992 60.2032 14.6832 59.6573 14.6832H55.0801V4.71692ZM58.1595 6.97053V12.4156H58.9154C59.5593 12.4156 60.0212 12.3456 60.2872 12.2056C60.5531 12.0656 60.7771 11.8137 60.9311 11.4637C61.085 11.1138 61.169 10.5259 61.169 9.72804C61.169 8.66423 61.001 7.95035 60.6511 7.55842C60.3012 7.16649 59.7413 6.97053 58.9294 6.97053H58.1595Z" fill="#B8B8B8"/>
<path d="M65.1016 11.3937L68.041 11.2117C68.111 11.6877 68.237 12.0516 68.433 12.3036C68.7549 12.7095 69.2028 12.9054 69.7907 12.9054C70.2247 12.9054 70.5746 12.8075 70.8126 12.5975C71.0505 12.3875 71.1765 12.1496 71.1765 11.8836C71.1765 11.6317 71.0645 11.3937 70.8406 11.1838C70.6166 10.9738 70.0847 10.7918 69.2588 10.6099C67.9011 10.3019 66.9492 9.89597 66.3613 9.39206C65.7734 8.88815 65.4935 8.24427 65.4935 7.4604C65.4935 6.94249 65.6475 6.46658 65.9414 6.00466C66.2354 5.54274 66.6833 5.1928 67.2852 4.92684C67.8871 4.66089 68.6989 4.53491 69.7348 4.53491C71.0085 4.53491 71.9884 4.77287 72.6462 5.24879C73.3181 5.7247 73.7101 6.48057 73.836 7.51639L70.9245 7.68436C70.8406 7.23644 70.6866 6.9145 70.4346 6.70454C70.1827 6.49457 69.8467 6.39659 69.4128 6.39659C69.0489 6.39659 68.7829 6.46658 68.601 6.62055C68.419 6.77452 68.335 6.95649 68.335 7.18045C68.335 7.33442 68.405 7.4884 68.559 7.61438C68.6989 7.74035 69.0489 7.86633 69.5948 7.97831C70.9385 8.27226 71.9044 8.56621 72.4923 8.86016C73.0802 9.15411 73.5001 9.53204 73.766 9.96596C74.032 10.3999 74.158 10.9038 74.158 11.4497C74.158 12.0936 73.976 12.6815 73.6261 13.2134C73.2761 13.7593 72.7722 14.1652 72.1423 14.4452C71.5124 14.7251 70.7006 14.8651 69.7348 14.8651C68.041 14.8651 66.8653 14.5432 66.2074 13.8853C65.5635 13.2274 65.1995 12.4015 65.1016 11.3937Z" fill="#B8B8B8"/>
<path d="M74.9424 11.3937L77.8819 11.2117C77.9519 11.6877 78.0778 12.0516 78.2738 12.3036C78.5957 12.7095 79.0437 12.9054 79.6316 12.9054C80.0655 12.9054 80.4154 12.8075 80.6534 12.5975C80.8913 12.3875 81.0173 12.1496 81.0173 11.8836C81.0173 11.6317 80.9053 11.3937 80.6814 11.1838C80.4574 10.9738 79.9255 10.7918 79.0997 10.6099C77.7419 10.3019 76.7901 9.89597 76.2022 9.39206C75.6283 8.88815 75.3343 8.24427 75.3343 7.4604C75.3343 6.94249 75.4883 6.46658 75.7822 6.00466C76.0762 5.54274 76.5241 5.1928 77.126 4.92684C77.7279 4.66089 78.5398 4.53491 79.5756 4.53491C80.8493 4.53491 81.8292 4.77287 82.4871 5.24879C83.1589 5.7247 83.5509 6.48057 83.6769 7.51639L80.7654 7.68436C80.6814 7.23644 80.5274 6.9145 80.2754 6.70454C80.0235 6.49457 79.6876 6.39659 79.2536 6.39659C78.8897 6.39659 78.6237 6.46658 78.4418 6.62055C78.2598 6.77452 78.1758 6.95649 78.1758 7.18045C78.1758 7.33442 78.2458 7.4884 78.3998 7.61438C78.5398 7.74035 78.8897 7.86633 79.4356 7.97831C80.7794 8.27226 81.7452 8.56621 82.3331 8.86016C82.921 9.15411 83.3409 9.53204 83.6069 9.96596C83.8728 10.3999 83.9988 10.9038 83.9988 11.4497C83.9988 12.0936 83.8168 12.6815 83.4669 13.2134C83.1169 13.7593 82.613 14.1652 81.9832 14.4452C81.3533 14.7251 80.5414 14.8651 79.5756 14.8651C77.8819 14.8651 76.7061 14.5432 76.0482 13.8853C75.3903 13.2274 75.0264 12.4015 74.9424 11.3937Z" fill="#B8B8B8"/>
</svg>
