<svg width="140" height="45" viewBox="0 0 140 45" fill="none" xmlns="http://www.w3.org/2000/svg">
<path d="M11.2805 45L6.86719 40.6213V13.6193L11.2805 9.2406V45Z" fill="white"/>
<path d="M4.41331 38.4319L0 33.8099V20.4306L4.41331 15.8086V38.4319Z" fill="white"/>
<path d="M13.4844 38.4319L18.1429 33.8099V20.4306L13.4844 15.8086V38.4319Z" fill="white"/>
<path d="M58.1091 26.2688C59.0898 25.539 59.5802 24.3227 59.5802 22.8632C59.5802 19.7008 57.3735 18.2412 53.2054 18.2412H44.8691V36.2425H53.941C58.3543 36.2425 61.0513 34.2964 61.0513 30.6475C61.0513 28.4582 60.0706 26.9986 58.1091 26.2688ZM53.4506 25.2958H48.0565V20.9171H53.2054C55.9024 20.9171 56.1476 21.8901 56.1476 22.8632C56.1476 24.566 55.4121 25.2958 53.4506 25.2958ZM48.0565 28.2149H53.6958C57.1283 28.2149 57.6187 29.4312 57.6187 30.6475C57.6187 32.5936 56.3928 33.3234 53.4506 33.3234H47.8114V28.2149H48.0565Z" fill="white"/>
<path d="M86.0606 35.5128C85.8154 29.9177 85.325 24.3227 84.5895 18.7277V18.2412H81.6473L75.2725 29.6745L68.8977 18.2412H65.9555V18.7277C65.2199 24.3227 64.7296 29.9177 64.4844 35.5128V36.2425H67.6718V35.5128C67.6718 31.6206 68.1621 27.2419 68.6525 23.593L74.5369 33.8099H76.4984L82.3828 23.593C82.8732 27.2419 83.1184 31.6206 83.3635 35.5128V36.2425H86.5509L86.0606 35.5128Z" fill="white"/>
<path d="M36.2869 25.7824L33.3447 25.0526C31.1381 24.5661 30.4025 24.0796 30.4025 22.8633C30.4025 21.647 31.8736 20.9172 34.3254 20.9172C35.7966 20.9172 37.2677 21.1604 38.7388 21.8902L40.7002 19.9441L40.2099 19.7009C38.4936 18.7278 36.2869 17.998 34.0803 17.998C29.667 17.998 26.9699 19.9441 26.9699 22.8633C26.9699 25.5391 28.6862 26.9987 32.364 27.7285L35.3062 28.4583C38.0032 28.9448 38.0032 30.1611 38.0032 30.6476C38.0032 32.1072 36.5321 33.0802 33.8351 33.0802C32.1188 33.0802 29.9121 32.5937 28.1958 31.6207L26.2344 33.5668L26.4796 33.81C28.441 35.2696 31.1381 35.9994 33.8351 35.9994C38.2484 35.9994 40.9454 34.0533 40.9454 30.6476C41.4358 27.9718 39.9647 26.5122 36.2869 25.7824Z" fill="white"/>
<path d="M98.3197 25.0525C97.339 25.0525 95.8679 25.5391 94.8871 26.2688V20.6738H93.416V35.5128C94.8871 35.9993 96.8486 35.9993 98.0745 35.9993C101.262 35.9993 103.469 33.5667 103.469 30.4043C103.714 27.2419 101.262 25.0525 98.3197 25.0525ZM98.3197 34.783C96.8486 34.783 95.6227 34.5397 94.8871 34.5397V27.9717C95.3775 27.4851 96.3582 26.5121 98.3197 26.5121C100.526 26.5121 102.243 28.2149 102.243 30.6475C102.243 33.0801 100.526 34.783 98.3197 34.783Z" fill="white"/>
<path d="M115.483 31.8639V25.0526H114.503L114.257 25.7824C112.541 25.0526 111.56 25.0526 110.58 25.0526C107.392 25.0526 105.186 27.4852 105.186 30.6476C105.186 33.81 107.392 36.2426 110.334 36.2426C111.806 36.2426 113.031 35.7561 114.012 34.7831L114.257 36.2426H115.483V35.9994C115.728 35.7561 115.483 33.5668 115.483 31.8639ZM110.334 34.7831C108.128 34.7831 106.657 33.0802 106.657 30.6476C106.657 28.215 108.373 26.5122 110.58 26.5122C111.56 26.5122 112.786 26.7554 114.012 27.4852V32.5937C113.522 33.81 112.296 34.7831 110.334 34.7831Z" fill="white"/>
<path d="M123.083 25.0526C121.857 25.0526 120.386 25.5391 119.651 26.5122L119.406 25.0526H118.18V35.7561H119.651V27.7285C120.141 27.242 121.122 26.2689 122.838 26.2689C125.045 26.2689 126.026 27.242 126.026 29.4313V35.7561H127.497V28.9448C127.497 26.5122 126.026 25.0526 123.083 25.0526Z" fill="white"/>
<path d="M133.38 29.4312L139.509 25.0525H137.303C136.812 25.2958 132.644 27.9717 131.909 28.7014V20.6738H130.438V35.9993H131.909V29.9178C132.644 30.8908 137.303 35.2695 138.038 35.756H140L133.38 29.4312Z" fill="white"/>
<path d="M32.609 8.02418C32.609 8.99722 32.3638 9.72701 31.6283 10.2135C30.8927 10.7001 30.1572 10.9433 28.9313 10.9433C28.4409 10.9433 27.9505 10.9433 27.7053 10.9433C27.4602 10.9433 26.9698 10.7001 26.7246 10.7001V9.48374C27.4602 9.72701 28.1957 9.97027 28.9313 9.97027C29.6668 9.97027 30.1572 9.72701 30.6476 9.48374C31.1379 9.24048 31.3831 8.75396 31.3831 8.02418C31.3831 7.78092 31.3831 7.29439 31.1379 7.05113C30.8927 6.80787 30.4024 6.56461 29.912 6.07809C29.1765 5.59157 28.6861 5.34831 28.4409 4.86178C28.1957 4.37526 27.9505 4.132 27.9505 3.64548C27.9505 2.91569 28.1957 2.18591 28.9313 1.69939C29.4216 1.21287 30.1572 0.969604 31.1379 0.969604C31.6283 0.969604 31.8735 0.969604 32.3638 1.21287C32.8542 1.21287 33.0994 1.45613 33.5898 1.69939L33.0994 2.67243C32.8542 2.42917 32.609 2.42917 32.1187 2.18591C31.8735 2.18591 31.3831 1.94265 31.1379 1.94265C30.6476 1.94265 30.1572 2.18591 29.6668 2.42917C29.4216 2.67243 29.1764 3.15895 29.1764 3.64548C29.1764 3.88874 29.1764 4.132 29.1764 4.132C29.1764 4.37526 29.4216 4.37526 29.4216 4.61852C29.6668 4.86178 29.912 4.86178 30.4024 5.34831C31.1379 5.83483 31.3831 6.07809 31.6283 6.32135C31.8735 6.56461 32.1187 6.80787 32.1187 7.05113C32.609 7.53766 32.609 7.78092 32.609 8.02418Z" fill="white"/>
<path d="M38.4923 10.9432L39.4731 6.32126C39.4731 5.83474 39.4731 5.59147 39.4731 5.34821C39.4731 5.10495 39.4731 4.86169 39.2279 4.61843C38.9827 4.37517 38.9827 4.37517 38.4923 4.37517C38.002 4.37517 37.7568 4.61843 37.5116 4.86169C37.2664 5.10495 37.0212 5.59148 36.7761 6.078C36.5309 6.56452 36.2857 7.05104 36.2857 7.78083L35.5501 10.9432H34.3242L35.7953 3.88865H36.7761L36.5309 5.10495C37.0212 4.61843 37.2664 4.13191 37.7568 3.88865C38.2472 3.64539 38.4923 3.64539 38.9827 3.64539C39.4731 3.64539 39.9635 3.88865 40.2086 4.13191C40.4538 4.37517 40.699 4.86169 40.699 5.34821C41.1894 4.86169 41.4346 4.37517 41.9249 4.13191C42.4153 3.88865 42.6605 3.64539 43.1508 3.64539C43.6412 3.64539 44.1316 3.88865 44.3768 4.13191C44.6219 4.37517 44.8671 4.86169 44.8671 5.34821C44.8671 5.59147 44.8671 6.078 44.622 6.56452L43.6412 10.9432H42.4153L43.396 6.32126C43.396 5.83474 43.6412 5.59147 43.6412 5.34821C43.6412 5.10495 43.6412 4.86169 43.396 4.61843C43.1508 4.37517 42.9057 4.37517 42.6605 4.37517C42.4153 4.37517 41.9249 4.61843 41.6797 4.86169C41.4346 5.10495 40.9442 5.34821 40.699 5.83474C40.4538 6.32126 40.2086 6.80778 40.2086 7.53756L39.4731 10.7H38.4923V10.9432Z" fill="white"/>
<path d="M50.2617 3.64539C50.7521 3.64539 50.9973 3.64539 51.2425 3.88865C51.4877 4.13191 51.7328 4.37517 51.978 4.86169L52.4684 3.64539H53.204L51.7328 10.7H50.7521L50.9973 9.24039C50.2617 10.2134 49.281 10.7 48.5455 10.7C48.0551 10.7 47.5647 10.4567 47.0744 9.97018C46.8292 9.48365 46.584 8.99713 46.584 8.26735C46.584 7.2943 46.8292 6.56452 47.0744 5.83474C47.3195 5.10495 47.8099 4.37517 48.3003 4.13191C49.0358 3.88865 49.7714 3.64539 50.2617 3.64539ZM49.0358 10.2134C49.5262 10.2134 49.7714 9.97018 50.2617 9.72691C50.7521 8.99713 51.2425 8.51061 51.4877 8.02409C51.7328 7.2943 51.978 6.80778 51.978 6.078C51.978 5.59147 51.978 5.34821 51.7328 5.10495C51.4877 4.86169 51.2425 4.61843 50.7521 4.61843C50.2617 4.61843 49.7714 4.86169 49.5262 5.10495C49.0358 5.59147 48.7906 6.078 48.5455 6.56452C48.3003 7.2943 48.3003 7.78083 48.3003 8.51061C48.3003 8.99713 48.3003 9.48365 48.5455 9.72691C48.5455 9.97018 48.7906 10.2134 49.0358 10.2134Z" fill="white"/>
<path d="M59.3334 3.64548C59.5786 3.64548 59.8237 3.64548 60.0689 3.64548L59.8237 4.61853C59.5786 4.61853 59.3334 4.61853 59.0882 4.61853C58.5978 4.61853 58.3526 4.86179 57.8623 5.10505C57.6171 5.34831 57.1267 5.83483 56.8815 6.07809C56.6363 6.56462 56.3912 7.05114 56.3912 7.53766L55.6556 10.7001H54.4297L55.9008 3.64548H56.8815L56.6363 4.86179C56.8815 4.37527 57.1267 4.13201 57.3719 3.88874C57.6171 3.64548 57.8623 3.64548 58.1075 3.40222C58.843 3.64548 59.0882 3.64548 59.3334 3.64548Z" fill="white"/>
<path d="M62.7672 10.2136C63.0124 10.2136 63.2576 10.2136 63.7479 9.97037V10.7002C63.5028 10.7002 63.5028 10.7002 63.2576 10.9434C63.0124 10.9434 62.7672 10.9434 62.7672 10.9434C62.2768 10.9434 61.7865 10.7002 61.5413 10.4569C61.2961 10.2136 61.0509 9.72711 61.0509 9.24058C61.0509 8.99732 61.0509 8.5108 61.0509 8.26754L61.7865 4.37536H60.5605V3.88884L61.7865 3.40232L62.522 1.94275H63.2576L63.0124 3.64558H64.7287L64.4835 4.37536H62.7672L62.0316 8.26754C62.0316 8.75406 62.0316 8.99732 62.0316 9.24058C62.0316 9.48385 62.0316 9.72711 62.2768 9.72711C62.2768 9.97037 62.522 10.2136 62.7672 10.2136Z" fill="white"/>
<path d="M74.2922 1.45615C76.2537 1.45615 77.2344 2.18594 77.2344 3.6455C77.2344 4.37529 76.9892 4.86181 76.7441 5.10507C76.0085 5.59159 75.5181 5.83485 74.7826 5.83485C75.273 6.07811 75.7633 6.32137 76.0085 6.56464C76.2537 6.8079 76.4989 7.29442 76.4989 7.78094C76.4989 8.75399 76.2537 9.48377 75.5181 9.97029C74.7826 10.4568 74.047 10.7001 72.8211 10.7001H69.8789L71.8404 1.21289H74.2922V1.45615ZM71.1048 9.97029H72.8211C73.5567 9.97029 74.2922 9.72703 74.5374 9.48377C75.0278 9.24051 75.273 8.75399 75.273 8.0242C75.273 7.53768 75.0278 7.05116 74.7826 6.8079C74.5374 6.56464 74.047 6.32137 73.3115 6.32137H71.8404L71.1048 9.97029ZM72.0856 5.34833H73.5567C74.2922 5.34833 74.7826 5.10507 75.273 4.86181C75.7633 4.61855 75.7633 4.13202 75.7633 3.6455C75.7633 3.15898 75.5181 2.91572 75.273 2.67246C75.0278 2.4292 74.5374 2.4292 73.8019 2.4292H72.3307L72.0856 5.34833Z" fill="white"/>
<path d="M81.8896 3.64539C82.38 3.64539 82.6252 3.64539 82.8703 3.88865C83.1155 4.13191 83.3607 4.37517 83.6059 4.86169L84.0963 3.64539H84.8318L83.3607 10.7H82.38L82.6252 9.24039C81.8896 10.2134 80.9089 10.7 80.1733 10.7C79.683 10.7 79.1926 10.4567 78.7022 9.97018C78.457 9.97018 78.457 9.24039 78.457 8.51061C78.457 7.53756 78.7022 6.80778 78.9474 6.078C79.1926 5.34821 79.683 4.61843 80.1733 4.37517C80.6637 3.88865 81.1541 3.64539 81.8896 3.64539ZM80.6637 10.2134C81.1541 10.2134 81.3992 9.97018 81.8896 9.72691C82.38 9.24039 82.6252 8.75387 82.8703 8.26735C83.1155 7.2943 83.3607 6.56452 83.3607 6.078C83.3607 5.59147 83.3607 5.34821 83.1155 5.10495C82.8704 4.86169 82.6252 4.61843 82.1348 4.61843C81.6444 4.61843 81.1541 4.86169 80.9089 5.10495C80.4185 5.59147 80.1733 6.078 79.9281 6.56452C79.6829 7.2943 79.683 7.78083 79.683 8.51061C79.683 8.99713 79.6829 9.48365 79.9281 9.72691C79.9281 9.97018 80.4185 10.2134 80.6637 10.2134Z" fill="white"/>
<path d="M90.7171 10.9432L91.6978 6.32126C91.6978 5.83474 91.943 5.59147 91.943 5.34821C91.943 5.10495 91.943 4.86169 91.6978 4.61843C91.4527 4.37517 91.2075 4.37517 90.9623 4.37517C90.4719 4.37517 90.2267 4.61843 89.7364 4.86169C89.246 5.10495 89.0008 5.59148 88.7556 6.078C88.2653 6.56452 88.2653 7.05104 88.0201 7.78083L87.2845 10.9432H86.0586L87.5297 3.88865H88.5104L88.2653 5.10495C88.7556 4.61843 89.0008 4.13191 89.4912 3.88865C89.9815 3.64539 90.2267 3.64539 90.7171 3.64539C91.2075 3.64539 91.6978 3.88865 91.943 4.13191C92.1882 4.37517 92.4334 4.86169 92.4334 5.34821C92.4334 5.59147 92.4334 6.078 92.1882 6.56452L91.2075 10.9432H90.7171Z" fill="white"/>
<path d="M96.358 7.29449L99.7905 3.88884H101.016L98.0742 6.80797L100.036 10.9434H98.8098L97.3387 7.53775L96.358 8.26754L95.6224 10.9434H94.3965L96.6031 0.72644H97.8291C97.5839 2.18601 97.3387 3.40231 97.0935 4.61862C96.8483 5.83493 96.6031 6.56471 96.358 7.29449Z" fill="white"/>
<path d="M102.732 10.9433H101.506L102.977 3.88876H104.203L102.732 10.9433ZM103.467 1.94267C103.467 1.69941 103.467 1.45615 103.713 1.45615C103.958 1.21289 103.958 1.21289 104.203 1.21289C104.693 1.21289 104.693 1.45615 104.693 1.69941C104.693 1.94267 104.693 2.18594 104.448 2.18594C104.203 2.18594 104.203 2.4292 103.958 2.4292C103.713 2.4292 103.713 2.4292 103.467 2.18594C103.467 2.18594 103.467 2.18594 103.467 1.94267Z" fill="white"/>
<path d="M110.088 10.9432L111.069 6.32126C111.069 5.83474 111.314 5.59147 111.314 5.34821C111.314 5.10495 111.314 4.86169 111.069 4.61843C110.824 4.37517 110.579 4.37517 110.333 4.37517C109.843 4.37517 109.598 4.61843 109.107 4.86169C108.617 5.10495 108.372 5.59148 108.127 6.078C107.882 6.56452 107.636 7.05104 107.391 7.78083L106.656 10.9432H105.43L106.901 3.88865H107.882V5.10495C108.372 4.61843 108.617 4.13191 109.107 3.88865C109.598 3.64539 109.843 3.64539 110.333 3.64539C110.824 3.64539 111.314 3.88865 111.559 4.13191C111.804 4.37517 112.05 4.86169 112.05 5.34821C112.05 5.59147 112.05 6.078 111.804 6.56452L110.824 10.9432H110.088Z" fill="white"/>
<path d="M120.876 3.64539L120.631 4.37517L119.16 4.61843C119.405 4.86169 119.405 5.34821 119.405 5.59148C119.405 6.32126 119.16 7.05104 118.67 7.53756C118.179 8.02409 117.444 8.26735 116.708 8.26735C116.463 8.26735 116.218 8.26735 116.218 8.26735C115.482 8.51061 115.237 8.75387 115.237 9.24039C115.237 9.48365 115.237 9.48365 115.482 9.48365C115.727 9.48365 115.727 9.48365 116.218 9.72691H116.953C117.689 9.72691 118.424 9.97018 118.67 10.2134C118.915 10.4567 119.16 10.9432 119.16 11.4297C119.16 12.1595 118.915 12.8893 118.179 13.3758C117.444 13.8624 116.708 14.1056 115.482 14.1056C114.747 14.1056 114.011 13.8624 113.521 13.6191C113.03 13.3758 112.785 12.8893 112.785 12.1595C112.785 11.673 113.03 11.1865 113.276 10.9432C113.521 10.7 114.011 10.2134 114.747 9.97018C114.501 9.72691 114.256 9.48365 114.256 9.24039C114.256 8.99713 114.256 8.75387 114.501 8.51061C114.747 8.26735 114.992 8.02409 115.482 8.02409C115.237 8.02409 114.992 7.78083 114.747 7.53756C114.501 7.2943 114.501 7.05104 114.501 6.56452C114.501 5.83474 114.747 5.10495 115.237 4.37517C115.727 3.88865 116.463 3.64539 117.198 3.64539C117.444 3.64539 117.934 3.64539 118.179 3.88865H120.876V3.64539ZM113.766 12.1595C113.766 12.4028 114.011 12.646 114.256 12.8893C114.501 13.1326 114.992 13.1326 115.482 13.1326C116.218 13.1326 116.953 12.8893 117.444 12.646C117.934 12.4028 118.179 11.9163 118.179 11.4297C118.179 11.1865 118.179 10.9432 117.934 10.7C117.689 10.4567 117.198 10.4567 116.708 10.4567H115.727C115.237 10.4567 114.747 10.7 114.501 10.9432C114.011 11.4297 113.766 11.673 113.766 12.1595ZM115.727 6.32126C115.727 6.80778 115.727 7.05104 115.973 7.05104C116.218 7.2943 116.463 7.2943 116.708 7.2943C116.953 7.2943 117.444 7.2943 117.689 7.05104C117.934 6.80778 118.179 6.56452 118.179 6.32126C118.424 6.078 118.424 5.59147 118.424 5.34821C118.424 5.10495 118.424 4.61843 118.179 4.61843C117.934 4.37517 117.689 4.37517 117.444 4.37517C117.198 4.37517 116.708 4.37517 116.463 4.61843C116.218 4.86169 115.973 5.10495 115.973 5.34821C115.727 5.83474 115.727 6.078 115.727 6.32126Z" fill="white"/>
<path d="M128.476 10.9434C127.986 10.9434 127.741 10.9434 127.251 10.7001C127.005 10.4569 126.76 10.2136 126.515 9.7271L126.025 10.9434H125.289L127.496 0.72644H128.722C128.476 1.69949 128.231 2.67253 128.231 3.15905C128.231 3.64557 127.986 4.37536 127.741 5.10514C128.231 4.61862 128.476 4.1321 128.967 3.88884C129.457 3.64557 129.702 3.64557 130.193 3.64557C130.928 3.64557 131.173 3.88884 131.664 4.37536C132.154 4.86188 132.154 5.3484 132.154 6.07819C132.154 7.05123 131.909 7.78101 131.664 8.5108C131.419 9.24058 130.928 9.97037 130.438 10.2136C129.702 10.7001 129.212 10.9434 128.476 10.9434ZM129.702 4.61862C129.212 4.61862 128.967 4.86188 128.476 5.3484C127.986 5.59166 127.496 6.07819 127.251 6.80797C127.005 7.53775 126.76 8.02428 126.76 8.75406C126.76 9.24058 126.76 9.48384 127.005 9.97036C127.251 10.2136 127.496 10.4569 127.986 10.4569C128.476 10.4569 128.722 10.2136 129.212 9.97036C129.948 9.24058 130.193 8.75406 130.438 8.02428C130.683 7.29449 130.683 6.56471 130.683 5.83492C130.928 5.10514 130.438 4.61862 129.702 4.61862Z" fill="white"/>
<path d="M133.871 3.64539H134.851L135.342 7.2943C135.342 7.53756 135.342 8.02409 135.587 8.51061C135.587 8.99713 135.587 9.48365 135.587 9.97018C135.832 9.48365 135.832 9.24039 136.077 8.75387C136.323 8.26735 136.568 8.02409 136.568 7.78083L138.774 3.88865H140L135.342 12.1595C134.851 12.8893 134.606 13.3758 134.116 13.6191C133.626 13.8624 133.135 14.1056 132.645 14.1056C132.4 14.1056 131.909 14.1056 131.664 13.8624V13.1326C131.909 13.1326 132.154 13.1326 132.645 13.1326C132.89 13.1326 133.38 13.1326 133.626 12.8893C133.871 12.646 134.116 12.4028 134.361 11.9163L134.851 10.9432L133.871 3.64539Z" fill="white"/>
</svg>
